<?xml version="1.0" standalone="no"?>
<!DOCTYPE svg PUBLIC "-//W3C//DTD SVG 20010904//EN"
 "http://www.w3.org/TR/2001/REC-SVG-20010904/DTD/svg10.dtd">
<svg version="1.0" xmlns="http://www.w3.org/2000/svg"
 width="1081.000000pt" height="1081.000000pt" viewBox="0 0 1081.000000 1081.000000"
 preserveAspectRatio="xMidYMid meet">

<g transform="translate(0.000000,1081.000000) scale(0.100000,-0.100000)"
fill="#000000" stroke="none">
<path d="M5090 10800 c-1072 -70 -2075 -436 -2917 -1067 -211 -157 -358 -287
-584 -512 -225 -226 -355 -373 -512 -584 -861 -1150 -1226 -2598 -1016 -4032
166 -1134 700 -2194 1519 -3015 615 -617 1326 -1055 2150 -1325 751 -246 1545
-322 2346 -225 820 100 1635 402 2324 863 312 209 545 400 826 681 443 444
765 892 1034 1441 465 949 640 2001 509 3055 -192 1549 -1054 2943 -2359 3815
-758 506 -1586 801 -2505 890 -194 19 -630 27 -815 15z m859 -324 c1406 -160
2650 -859 3506 -1971 388 -504 688 -1102 860 -1715 303 -1080 247 -2216 -162
-3255 -251 -637 -613 -1196 -1098 -1694 -1453 -1492 -3666 -1947 -5600 -1151
-290 120 -659 320 -920 498 -489 334 -943 780 -1287 1262 -501 704 -815 1533
-913 2411 -22 194 -31 699 -16 899 53 697 223 1315 532 1931 242 484 524 879
912 1276 410 418 839 733 1351 990 604 303 1210 473 1896 532 165 15 770 6
939 -13z"/>
<path d="M8990 7174 c-30 -80 -66 -159 -80 -176 -19 -22 -64 -45 -185 -93
-156 -62 -159 -64 -130 -75 17 -7 77 -30 134 -52 181 -68 186 -73 247 -232 26
-67 53 -137 61 -156 l14 -35 60 155 c36 93 71 166 86 182 18 18 77 47 172 84
80 31 149 60 154 64 4 3 -50 28 -120 54 -185 70 -206 84 -241 159 -16 34 -47
108 -68 165 -21 56 -41 102 -44 102 -3 0 -30 -66 -60 -146z"/>
<path d="M2375 6072 c-72 -8 -125 -39 -157 -90 l-23 -37 -3 -834 c-3 -902 -2
-910 51 -989 77 -114 315 -159 461 -87 66 33 111 82 128 140 9 28 11 130 9
343 -2 259 -1 302 12 302 8 0 43 -10 78 -22 58 -20 84 -22 259 -22 175 0 201
2 259 22 35 12 70 22 78 22 13 0 14 -43 12 -302 -2 -214 0 -315 9 -343 17 -58
62 -107 128 -140 146 -72 384 -27 461 87 53 79 54 87 51 989 l-3 834 -23 38
c-13 20 -44 49 -69 64 -43 25 -50 26 -211 27 -228 1 -248 -6 -362 -127 -221
-234 -315 -332 -320 -335 -7 -3 -226 212 -340 334 -105 113 -132 125 -305 129
-66 2 -147 0 -180 -3z"/>
<path d="M6722 6065 c-78 -34 -111 -194 -119 -576 -16 -783 147 -1244 500
-1413 119 -57 195 -76 338 -83 358 -18 698 143 872 414 212 328 272 703 211
1333 -17 177 -31 227 -80 269 -56 50 -128 66 -294 66 -136 0 -148 -2 -190 -25
-24 -14 -55 -40 -67 -59 l-23 -34 6 -296 c7 -315 0 -436 -37 -586 -64 -266
-227 -392 -382 -296 -73 45 -137 165 -168 313 -25 120 -27 375 -4 584 24 213
9 332 -48 380 -28 24 -29 24 -255 24 -174 -1 -235 -4 -260 -15z"/>
<path d="M5906 6050 c-104 -41 -137 -95 -251 -415 -37 -104 -78 -212 -92 -238
-30 -59 -62 -77 -97 -53 -34 22 -45 45 -106 221 -82 238 -137 322 -263 405
-126 83 -296 107 -422 60 -78 -29 -147 -98 -163 -163 -31 -123 4 -237 141
-459 36 -59 99 -165 138 -235 40 -70 94 -161 121 -202 26 -40 53 -91 60 -112
10 -34 9 -42 -7 -59 -24 -26 -56 -36 -225 -64 -214 -36 -273 -67 -319 -165
-26 -55 -26 -58 -24 -262 3 -308 8 -316 200 -306 366 19 701 116 948 275 434
279 753 732 856 1217 24 114 44 339 35 388 -14 75 -97 134 -241 172 -84 21
-227 19 -289 -5z"/>
</g>
</svg>